<?xml version="1.0" encoding="utf-8"?>
<!-- Generator: Adobe Illustrator 16.0.0, SVG Export Plug-In . SVG Version: 6.00 Build 0)  -->
<!DOCTYPE svg PUBLIC "-//W3C//DTD SVG 1.1//EN" "http://www.w3.org/Graphics/SVG/1.1/DTD/svg11.dtd">
<svg version="1.1" id="Capa_1" xmlns="http://www.w3.org/2000/svg" xmlns:xlink="http://www.w3.org/1999/xlink" x="0px" y="0px"
	 width="100%" height="auto" viewBox="0 0 1200 467.91" enable-background="new 0 0 1200 467.91" xml:space="preserve">
<g>
	<defs>
		<rect id="SVGID_1_" width="1200" height="1209.91"/>
	</defs>
	<clipPath id="SVGID_2_">
		<use xlink:href="#SVGID_1_"  overflow="visible"/>
	</clipPath>
	<g clip-path="url(#SVGID_2_)">
		<defs>
			<rect id="SVGID_3_" y="-0.004" width="1200" height="1209.914"/>
		</defs>
		<clipPath id="SVGID_4_">
			<use xlink:href="#SVGID_3_"  overflow="visible"/>
		</clipPath>
		<g clip-path="url(#SVGID_4_)">
			<defs>
				<rect id="SVGID_5_" x="1299.13" y="-0.004" width="1200" height="476.845"/>
			</defs>
			<clipPath id="SVGID_6_">
				<use xlink:href="#SVGID_5_"  overflow="visible"/>
			</clipPath>
			<g clip-path="url(#SVGID_6_)">
				<defs>
					<path id="SVGID_7_" d="M1646.252-1164.484c-227.708-18.458-309.185,544.337-356.105,706.666
						c-46.924,162.327-129.291,636.128-49.444,765.533c79.846,129.404,344.162,145.924,463.494,148.774
						c45.934,2.84,213.938,6.335,313.745,5.338c270.039-2.701,391.557-72.911,490.121-171.475c1.31-1.31,2.539-2.673,3.812-4.007
						c-3.896-9.712-3.896-9.711,0,0c86.7-90.826,91.223-237.992,65.048-334.893c-34.954-129.404-211.604-497.623-292.851-631.172
						C2139.39-951.549,1873.961-1146.026,1646.252-1164.484"/>
				</defs>
				<clipPath id="SVGID_8_">
					<use xlink:href="#SVGID_7_"  overflow="visible"/>
				</clipPath>
				
					<linearGradient id="SVGID_9_" gradientUnits="userSpaceOnUse" x1="0" y1="1209.916" x2="1" y2="1209.916" gradientTransform="matrix(1383.6577 0 0 -1383.6577 1207 1673750.375)">
					<stop  offset="0" style="stop-color:#533E90"/>
					<stop  offset="1" style="stop-color:#3B6AB1"/>
				</linearGradient>
				<rect x="1160.855" y="-1182.942" clip-path="url(#SVGID_8_)" fill="url(#SVGID_9_)" width="1442.242" height="1645.766"/>
			</g>
		</g>
	</g>
	<g clip-path="url(#SVGID_2_)">
		<defs>
			<path id="SVGID_10_" d="M0-0.004v366.728c111.055,75.851,307.01,87.423,405.067,89.765c45.933,2.84,213.938,6.335,313.744,5.338
				c261.947-2.62,384.135-68.757,481.189-162.686V-0.004H0z"/>
		</defs>
		<clipPath id="SVGID_11_">
			<use xlink:href="#SVGID_10_"  overflow="visible"/>
		</clipPath>
		
			<linearGradient id="SVGID_12_" gradientUnits="userSpaceOnUse" x1="0" y1="1209.4883" x2="1" y2="1209.4883" gradientTransform="matrix(1383.6577 0 0 -1383.6577 -92 1673750.375)">
			<stop  offset="0" style="stop-color:#533E90"/>
			<stop  offset="1" style="stop-color:#3B6AB1"/>
		</linearGradient>
		<rect y="-0.004" clip-path="url(#SVGID_11_)" fill="url(#SVGID_12_)" width="1200" height="462.828"/>
		<path clip-path="url(#SVGID_11_)" fill="#0D5E9B" d="M996.705,223.529c2.764,1.957,8.403,4.332,15.685,6.929
			C1000.977,226.101,996.705,223.529,996.705,223.529"/>
		<path clip-path="url(#SVGID_11_)" fill="#0D5E9B" d="M1054.095,243.689c-0.092-0.025-0.187-0.051-0.279-0.076
			c0.127,0.041,0.209,0.066,0.209,0.066L1054.095,243.689z"/>
		<path clip-path="url(#SVGID_11_)" fill="#92C01F" d="M1054.095,243.69L1054.095,243.69l-0.07-0.01c0,0-0.083-0.025-0.207-0.065
			C1053.908,243.639,1054.003,243.664,1054.095,243.69 M1164.391,305.517c0.054,0.053,0.11,0.103,0.167,0.152
			C1164.501,305.62,1164.444,305.57,1164.391,305.517"/>
	</g>
	<g clip-path="url(#SVGID_2_)">
		<defs>
			<path id="SVGID_13_" d="M0-0.004v366.728c111.055,75.851,307.01,87.423,405.067,89.765c45.933,2.84,213.938,6.335,313.744,5.338
				c261.947-2.62,384.135-68.757,481.189-162.686V-0.004H0z"/>
		</defs>
		<clipPath id="SVGID_14_">
			<use xlink:href="#SVGID_13_"  overflow="visible"/>
		</clipPath>
	</g>
	<g clip-path="url(#SVGID_2_)">
		<defs>
			<rect id="SVGID_15_" y="-0.004" width="1200" height="476.845"/>
		</defs>
		<clipPath id="SVGID_16_">
			<use xlink:href="#SVGID_15_"  overflow="visible"/>
		</clipPath>
	</g>
	<g clip-path="url(#SVGID_2_)">
		<defs>
			<rect id="SVGID_17_" y="-0.004" width="1200" height="1209.914"/>
		</defs>
		<clipPath id="SVGID_18_">
			<use xlink:href="#SVGID_17_"  overflow="visible"/>
		</clipPath>
	</g>
</g>
</svg>
