<?xml version="1.0" encoding="utf-8"?>
<!-- Generator: Adobe Illustrator 22.0.0, SVG Export Plug-In . SVG Version: 6.00 Build 0)  -->
<svg version="1.1" id="Layer_1" xmlns="http://www.w3.org/2000/svg" xmlns:xlink="http://www.w3.org/1999/xlink" x="0px" y="0px"
	 viewBox="0 0 42.5 42.5" style="enable-background:new 0 0 42.5 42.5;" xml:space="preserve">
<style type="text/css">
	.st0{fill:#E6322F;}
	.st1{fill:#FFFFFF;}
</style>
<g>
	<ellipse transform="matrix(0.3756 -0.9268 0.9268 0.3756 -6.428 32.9792)" class="st0" cx="21.3" cy="21.3" rx="15.3" ry="15.3"/>
	<path class="st1" d="M21.3,8.6c-7,0-12.7,5.7-12.7,12.7c0,7,5.7,12.7,12.7,12.7s12.7-5.7,12.7-12.7C33.9,14.3,28.2,8.6,21.3,8.6z
		 M21.3,32.3c-6.1,0-11-4.9-11-11s4.9-11,11-11s11,4.9,11,11S27.4,32.3,21.3,32.3z"/>
	<g>
		<path class="st1" d="M18.6,21.7c0,0,0.1,0.1,0.1,0.3c0.4,0.8,1.5,2.9,1.5,3.1c0.1,0.3,0.1,2.4,0.1,2.4s1.4,0.9,1.9-1.5
			c0.5-2.4-0.2-2.7-0.2-2.7l0.5,0l3.3,0.3c0.4,0,0.8-0.3,0.8-0.8c0-0.5-0.2-0.9-0.6-0.9l-1-0.1l0,0l1.2,0.1c0.5,0,0.9-0.3,0.9-0.7
			c0-0.5-0.3-0.9-0.7-0.9l-0.1,0c0.3-0.1,0.6-0.3,0.7-0.7c0-0.5-0.2-0.9-0.7-0.9l-0.3,0c0.3-0.1,0.5-0.4,0.5-0.7
			c0-0.5-0.2-0.9-0.6-0.9l-2-0.2c-0.8-0.1-1.7-0.3-2.5-0.3c-1.1,0-1.8,0.2-2.4,0.4c-0.3,0.1-0.6,0.2-0.8,0.2c-0.1,0-0.1,0.1-0.1,0.1
			v4.3C18.2,21.8,18.6,21.7,18.6,21.7z"/>
		<path class="st1" d="M17.5,16.8c0.2,0,0.4,0.2,0.4,0.4v4.6c0,0.2-0.2,0.4-0.4,0.4h-1.7c-0.2,0-0.4-0.2-0.4-0.4l0-4.6
			c0-0.2,0.2-0.4,0.4-0.4H17.5z"/>
	</g>
</g>
</svg>
